# AST/ASF file generated using VICON BodyLanguage
# -----------------------------------------------
:version 1.10
:name VICON
:units
  mass 1.0
  length 0.45
  angle deg
:documentation
   .ast/.asf automatically generated from VICON data using
   VICON BodyBuilder and BodyLanguage model FoxedUp or BRILLIANT.MOD
:root
   order TX TY TZ RX RY RZ
   axis XYZ
   position 0 0 0  
   orientation 0 0 0 
:bonedata
  begin
     id 1 
     name lhipjoint
     direction 0.653368 -0.678499 0.335782 
     length 2.51848 
     axis 0 0 0  XYZ
  end
  begin
     id 2 
     name lfemur
     direction 0.34202 -0.939693 0  
     length 6.57749  
     axis 0 0 20  XYZ
    dof rx ry rz
    limits (-160.0 20.0)
           (-70.0 70.0)
           (-60.0 70.0)
  end
  begin
     id 3 
     name ltibia
     direction 0.34202 -0.939693 0   
     length 7.94618   
     axis 0 0 20   XYZ
    dof rx
    limits (-10.0 170.0)
  end
  begin
     id 4 
     name lfoot
     direction 0.0811271 -0.222895 0.971461   
     length 2.31339   
     axis -90 7.62852e-016 20   XYZ
    dof rx rz
    limits (-45.0 90.0)
           (-70.0 20.0)
  end
  begin
     id 5 
     name ltoes
     direction 1.53568e-011 -4.21885e-011 1   
     length 1.15935   
     axis -90 7.62852e-016 20   XYZ
    dof rx
    limits (-90.0 20.0)
  end
  begin
     id 6 
     name rhipjoint
     direction -0.640058 -0.688614 0.340788   
     length 2.48149  
     axis 0 0 0  XYZ 
  end
  begin
     id 7 
     name rfemur
     direction -0.34202 -0.939693 0   
     length 6.57875   
     axis 0 0 -20   XYZ
    dof rx ry rz
    limits (-160.0 20.0)
           (-70.0 70.0)
           (-70.0 60.0)
  end
  begin
     id 8 
     name rtibia
     direction -0.34202 -0.939693 0   
     length 7.977   
     axis 0 0 -20   XYZ
    dof rx
    limits (-10.0 170.0)
 end
 begin
     id 9 
     name rfoot
     direction -0.0979793 -0.269196 0.958089   
     length 2.19857  
     axis -90 -7.62852e-016 -20   XYZ
    dof rx rz
    limits (-45.0 90.0)
           (-20.0 70.0)
  end
  begin
     id 10 
     name rtoes
     direction -1.53556e-011 -4.21868e-011 1   
     length 1.09838   
     axis -90 -7.62852e-016 -20   XYZ
    dof rx
    limits (-90.0 20.0)
  end
  begin
     id 11 
     name lowerback
     direction 0.0149039 0.998517 -0.0523597   
     length 2.10809   
     axis 0 0 0   XYZ
    dof rx ry rz
    limits (-20.0 45.0)
           (-30.0 30.0)
           (-30.0 30.0)
  end
  begin
     id 12 
     name upperback
     direction -0.00882659 0.999418 -0.0329624   
     length 2.1102   
     axis 0 0 0   XYZ
    dof rx ry rz
    limits (-20.0 45.0)
           (-30.0 30.0)
           (-30.0 30.0)
  end
  begin
     id 13 
     name thorax
     direction -0.0165585 0.999826 -0.0085833   
     length 2.11039   
     axis 0 0 0   XYZ
    dof rx ry rz
    limits (-20.0 45.0)
           (-30.0 30.0)
           (-30.0 30.0)
  end
  begin
     id 14 
     name lowerneck
     direction -0.0130877 0.999911 0.00260353   
     length 1.73253   
     axis 0 0 0   XYZ
    dof rx ry rz
    limits (-20.0 45.0)
           (-30.0 30.0)
           (-30.0 30.0)
  end
  begin
     id 15 
     name upperneck
     direction -0.0348454 0.928205 -0.370435   
     length 1.66692   
     axis 0 0 0   XYZ
    dof rx ry rz
    limits (-20.0 45.0)
           (-30.0 30.0)
           (-30.0 30.0)
  end
  begin
     id 16
     name head
     direction -0.00807754 0.992494 -0.122026  
     length 1.72765  
     axis 0 0 0   XYZ
    dof rx ry rz
    limits (-20.0 45.0)
           (-30.0 30.0)
           (-30.0 30.0)
  end
  begin
     id 17 
     name lclavicle
     direction 0.987582 0.144023 0.0627671  
     length 3.49235  
     axis 0 0 0   XYZ
    dof ry rz
    limits (-20.0 10.0)
           (0.0 20.0)
  end
  begin
     id 18 
     name lhumerus
     direction 1 -4.48958e-011 -1.45183e-018   
     length 5.41917   
     axis 180 -30 -90   XYZ
    dof rx ry rz
    limits (-60.0 90.0)
           (-90.0 90.0)
           (-90.0 90.0)
  end
  begin
     id 19
     name lradius
     direction 1 -4.48999e-011 5.75106e-027   
     length 2.44373   
     axis 180 -30 -90   XYZ
    dof rx
    limits (-10.0 170.0)
  end
  begin
     id 20
     name lwrist
     direction 1 -4.48987e-011 1.53461e-026   
     length 1.22186   
     axis -1.09697e-014 90 90   XYZ
    dof ry
    limits (-180.0 0.0)
 end
  begin
     id 21 
     name lhand
     direction 1 -4.48881e-011 3.06923e-026   
     length 0.727502   
     axis -1.95843e-014 90 90   XYZ
    dof rx rz
    limits (-90.0 90.0)
           (-45.0 45.0)
  end
  begin
     id 22 
     name lfingers
     direction 1 -4.48907e-011 6.13845e-026   
     length 0.586531   
     axis -3.91686e-014 90 90   XYZ
    dof rx
    limits (0.0 90.0)
  end
  begin
     id 23
     name lthumb
     direction 0.707107 -6.3487e-011 0.707107   
     length 0.842145   
     axis -90 45 2.85299e-015   XYZ
    dof rx rz
    limits (-45.0 45.0)
           (-45.0 45.0)
  end
  begin
     id 24 
     name rclavicle
     direction -0.980998 0.169556 0.0943023   
     length 3.29272  
     axis 0 0 0   XYZ 
    dof ry rz
    limits (-10.0 20.0)
           (-20.0 0.0)
  end
  begin
     id 25 
     name rhumerus
     direction -1 -1.83355e-005 2.45537e-005  
     length 5.58976   
     axis 180 30 90   XYZ
    dof rx ry rz
    limits (-90.0 60.0)
           (-90.0 90.0)
           (-90.0 90.0)
  end
  begin
     id 26 
     name rradius
     direction -1 -4.48967e-011 5.97228e-027   
     length 2.4806   
     axis 180 30 90   XYZ
    dof rx
    limits (-10.0 170.0)
  end
  begin
     id 27 
     name rwrist
     direction -1 -4.48963e-011 1.53461e-026   
     length 1.2403   
     axis -1.09697e-014 -90 -90   XYZ
    dof ry
    limits (-180.0 0.0)
  end
  begin
     id 28
     name rhand
     direction -1 -4.48881e-011 3.06923e-026   
     length 0.816009   
     axis -1.95843e-014 -90 -90   XYZ
    dof rx rz
    limits (-90.0 90.0)
           (-45.0 45.0)
  end
  begin
     id 29
     name rfingers
     direction -1 -4.49018e-011 6.13845e-026   
     length 0.657887   
     axis -3.91686e-014 -90 -90   XYZ
    dof rx
    limits (0.0 90.0)
  end
  begin
     id 30
     name rthumb
     direction -0.707107 -6.34872e-011 0.707107   
     length 0.944599   
     axis -90 -45 -2.85299e-015   XYZ
    dof rx rz
    limits (-45.0 45.0)
           (-45.0 45.0)
  end
:hierarchy
  begin
    root lhipjoint rhipjoint lowerback
    lhipjoint lfemur
    lfemur ltibia
    ltibia lfoot
    lfoot ltoes
    rhipjoint rfemur
    rfemur rtibia
    rtibia rfoot
    rfoot rtoes
    lowerback upperback
    upperback thorax
    thorax lowerneck lclavicle rclavicle
    lowerneck upperneck
    upperneck head
    lclavicle lhumerus
    lhumerus lradius
    lradius lwrist
    lwrist lhand lthumb
    lhand lfingers
    rclavicle rhumerus
    rhumerus rradius
    rradius rwrist
    rwrist rhand rthumb
    rhand rfingers
  end

#!OML:ASF F:\VICON\USERDATA\INSTALL\rory3\rory3.ASF
:FULLY-SPECIFIED
:DEGREES
56
root 4.56575 17.407 19.3784 -161.209 -43.9337 175.954
lowerback -6.98315 1.23348 -3.60546
upperback -7.69399 1.28477 0.376688
thorax -4.18373 0.614128 2.46472
lowerneck -12.7055 -2.02456 -4.34928
upperneck 25.3302 -2.87375 0.832351
head 10.2502 -1.95534 0.617033
rclavicle 3.93594e-014 1.98785e-014
rhumerus 199.482 -44.9249 137.047
rradius 14.233
rwrist 116.91
rhand 1.74468 3.45305
rfingers 7.12502
rthumb 27.2604 -24.5967
lclavicle 3.93594e-014 1.98785e-014
lhumerus -22.7204 21.275 2.94273
lradius 19.34
lwrist -42.4399
lhand -0.857236 30.8804
lfingers 7.12502
lthumb 24.769 59.2965
rfemur -37.7198 4.53091 -3.06013
rtibia 27.4669
rfoot -66.9073 6.94206
rtoes 62.5528
lfemur -13.5605 3.01593 -30.4911
ltibia 20.8196
lfoot -22.7046 27.7615
ltoes -10.1019
57
root 4.60023 17.4883 19.1917 -162.099 -44.2492 176.858
lowerback -7.29976 1.21341 -3.14351
upperback -7.54222 1.27 0.666586
thorax -3.83668 0.589303 2.51296
lowerneck -12.7196 -2.01892 -4.37835
upperneck 25.4438 -2.81685 0.63614
head 10.2909 -1.95952 0.558272
rclavicle 5.53367e-014 1.94809e-014
rhumerus 200.435 -46.0744 135.804
rradius 14.0881
rwrist 115.978
rhand 1.4668 3.22394
rfingers 7.12502
rthumb 26.9946 -24.8673
lclavicle 5.53367e-014 1.94809e-014
lhumerus -22.9433 21.1845 2.94484
lradius 19.3919
lwrist -41.6813
lhand -1.26674 30.9313
lfingers 7.12502
lthumb 24.3765 59.4009
rfemur -36.6613 3.97935 -1.1668
rtibia 27.3886
rfoot -66.5404 6.48089
rtoes 62.6826
lfemur -13.2887 2.93031 -28.9958
ltibia 21.3398
lfoot -21.9415 27.9705
ltoes -10.1837
58
root 4.63185 17.5617 19.0329 -162.781 -44.4616 177.826
lowerback -7.20321 1.517 -2.11498
upperback -7.92748 1.58938 0.661827
thorax -4.2807 0.692739 1.93855
lowerneck -12.1101 -2.13143 -4.4159
upperneck 25.7529 -3.07135 0.664998
head 10.2933 -2.10548 0.545229
rclavicle -7.82218e-014 -5.56597e-015
rhumerus 203.045 -47.9378 133.114
rradius 13.9139
rwrist 114.208
rhand 0.990082 3.02002
rfingers 7.12502
rthumb 26.5384 -25.141
lclavicle -7.82218e-014 -5.56597e-015
lhumerus -22.5639 20.4098 3.27184
lradius 19.4185
lwrist -40.8688
lhand -1.77928 30.9511
lfingers 7.12502
lthumb 23.8851 59.4859
rfemur -35.9331 2.56365 0.926489
rtibia 27.2352
rfoot -65.192 4.8085
rtoes 63.1493
lfemur -13.5358 2.52726 -27.5972
ltibia 22.1525
lfoot -21.7466 28.2575
ltoes -9.43226
59
root 4.6683 17.6307 18.8667 -163.137 -44.5665 178.072
lowerback -6.81667 1.79912 -1.63552
upperback -8.33863 1.90144 0.493457
thorax -4.92355 0.812738 1.49184
lowerneck -11.462 -2.22237 -4.67086
upperneck 26.0881 -3.31629 0.92327
head 10.306 -2.24474 0.652326
rclavicle -5.45912e-014 -7.95139e-016
rhumerus 207.5 -51.6726 128.099
rradius 13.566
rwrist 110.16
rhand 0.871407 2.35055
rfingers 7.12502
rthumb 26.4248 -25.8276
lclavicle -5.45912e-014 -7.95139e-016
lhumerus -22.4554 23.6445 2.02949
lradius 18.5196
lwrist -43.7663
lhand -3.19582 28.1378
lfingers 7.12502
lthumb 22.526 56.8438
rfemur -34.9997 0.826374 2.55862
rtibia 27.0791
rfoot -63.48 2.82104
rtoes 63.2846
lfemur -13.688 2.41822 -26.7338
ltibia 23.1413
lfoot -21.1034 28.435
ltoes -9.8191
60
root 4.71167 17.6954 18.6924 -163.555 -44.6888 178.294
lowerback -6.67157 1.92888 -1.51505
upperback -8.53352 2.05182 0.52653
thorax -5.21564 0.878164 1.4564
lowerneck -10.967 -2.23583 -4.94307
upperneck 26.3053 -3.3692 0.979787
head 10.2975 -2.31291 0.7149
rclavicle -5.66039e-014 -2.26615e-014
rhumerus 209.347 -52.8652 125.94
rradius 13.485
rwrist 109.463
rhand 0.810759 2.2939
rfingers 7.12502
rthumb 26.3667 -25.893
lclavicle -5.66039e-014 -2.26615e-014
lhumerus -22.5177 24.7042 1.6025
lradius 18.276
lwrist -44.4574
lhand -3.73147 27.3139
lfingers 7.12502
lthumb 22.0118 56.0813
rfemur -33.9948 -0.979286 4.23787
rtibia 26.9541
rfoot -61.4113 1.39104
rtoes 63.3731
lfemur -13.8511 2.60305 -25.8529
ltibia 24.2438
lfoot -20.0254 28.5688
ltoes -10.5062
61
root 4.75985 17.7521 18.516 -164.131 -44.7571 178.987
lowerback -6.81742 2.04882 -1.09262
upperback -8.71403 2.17654 0.548658
thorax -5.31375 0.9079 1.24876
lowerneck -10.4877 -2.23875 -5.01858
upperneck 26.4746 -3.49592 1.21628
head 10.2754 -2.37376 0.799513
rclavicle 3.4837e-014 1.23246e-014
rhumerus 208.494 -51.2999 126.605
rradius 13.6998
rwrist 112.406
rhand 0.206667 3.20828
rfingers 7.12502
rthumb 25.7883 -25.0639
lclavicle 3.4837e-014 1.23246e-014
lhumerus -22.3962 24.0043 1.50678
lradius 18.4238
lwrist -43.4268
lhand -3.70196 27.7435
lfingers 7.12502
lthumb 22.0401 56.5076
rfemur -33.2891 -2.53285 6.19495
rtibia 26.9556
rfoot -58.8826 -1.19419
rtoes 63.4561
lfemur -14.1855 2.8371 -24.6087
ltibia 25.2247
lfoot -19.7003 28.6617
ltoes -9.35948
